<svg xmlns="http://www.w3.org/2000/svg" viewBox="0 0 90 12"><g fill="#FFF"><path d="M7.7 6.9c0 .2-.1.4-.2.5-.1.1-.2.2-.4.3l-.3.3c-.5.3-1.1.6-1.7.8-.5.2-1.1.3-1.7.4-.6 0-1.2 0-1.8-.1-.3-.1-.6-.2-.8-.3v.3c0 .2-.1.3-.1.5 0 .1-.1.1-.2.1s-.1-.1-.1-.2l.1-.2v-.2c0-.1 0-.3.1-.4-.3-.2-.5-.4-.6-.5v-.1h.1c.1.1.3.2.4.3 0-.2 0-.4.1-.7 0-.6.1-1.2.1-1.8V5c0-.3 0-.6.1-.9.1-.6.3-1.2.7-1.7.3-.5.8-1 1.3-1.3l.9-.3c.4 0 .7.2.8.6v.5c0 .2-.1.3-.1.5s-.2.5-.3.8c-.3.4-.6.8-1 1.1.5 0 .9.1 1.3.2.6.2 1.2.4 1.7.7.3.1.5.3.8.5.2.1.5.3.6.7.1.1.2.3.2.5zm-.5-.4c-.1-.2-.3-.4-.5-.6-.3-.1-.5-.3-.8-.4-.5-.3-1-.5-1.6-.7s-1.1-.3-1.7-.3c-.1 0-.2-.1-.1-.2 0 0 0-.1.1-.1.5-.3.9-.7 1.2-1.2.2-.2.3-.5.4-.8 0-.1.1-.3.1-.4v-.2-.2C4.2 1.2 4 1 3.8 1c-.3.1-.6.1-.8.3-.6.2-1 .7-1.3 1.2-.3.5-.5 1-.6 1.6-.1.3-.1.6-.1.9v.9C1 6.5.9 7.1.9 7.7c0 .3 0 .5-.1.8.8.3 1.7.4 2.5.3.6 0 1.2-.2 1.7-.4.6-.2 1.1-.4 1.6-.7l.3-.3c.1 0 .2-.1.3-.2.1-.2.1-.5 0-.7zM12.1 9.1c-.8 1-2.1.1-2.7-.8-1.3-2-1.3-4.7-2.1-6.9-.1-.2.3-.3.4-.1.6 1.8.7 3.7 1.4 5.5.3.8 1.2 2.9 2.4 2.3.5-.3.6-1.2.7-1.7.4-2.3.2-4.8 0-7.2 0-.2.4-.2.4 0 .1 1.4.2 2.8.2 4.2 0 1.3.2 3.6-.7 4.7zM17.7 9c-.2.2-.6.2-.8.2-.8.1-1.5.1-2.3.1-.3 0-.3-.4 0-.4h1L15.3 2c-.5.1-.9.1-1.4.1-.3 0-.3-.4 0-.4.9 0 2-.2 2.8-.7.2-.1.4.2.2.3-.4.2-.8.4-1.2.5v.1l.3 6.9c.5 0 1.1-.1 1.4 0-.2-.1 0-.5.2-.3s.2.4.1.5zM24.2 7.5c0 .2-.2.4-.4.4-.7 0-1.5 0-2.3.1-.8.1-1.5.1-2.3.2l-.4-.4.2-3.6v-.4-.4-.9c0-.3-.1-.6-.1-.9 0-.1-.1-.3-.1-.4 0-.1-.1-.3-.1-.4 0-.1 0-.2.1-.2s.2 0 .2.1c0 0 0 .2.1.3.1.2.1.3.1.5.1.3.1.6.2.9 0 .3.1.6.1.9v.9l.1 3.2c.6-.1 1.3-.1 1.9-.2.8-.1 1.5-.1 2.3-.1.3 0 .4.2.4.4zm-5.3.3zM30.2 7.9c-.3.3-.6.6-1 .8-.3.2-.7.3-1 .3-.3.1-.6.1-.9.1h-1.2L26 9c-.2 0-.3-.2-.3-.3 0-.2.2-.3.3-.3 0-.1 0-.1-.1-.2-.2-.5-.3-1.2-.3-1.8-.1-.7-.1-1.3-.1-1.8V4c-.1 0-.2 0-.3-.1-.1-.1-.1-.4.1-.5l.2-.1c.1 0 .3-.1.4-.2.4-.2.9-.3 1.6-.4h1.1c.4.1.8.2 1.2.4.4.2.7.6.9 1 .2.4.3.8.4 1.3-.1.9-.4 1.8-.9 2.5zm.4-2.5c0-.4-.1-.8-.3-1.1-.2-.3-.5-.6-.8-.8-.6-.4-1.4-.4-2-.3-.6.1-1.1.3-1.4.4-.1.1-.2.1-.3.2 0 .1.1.4.1.8.1.4.2 1.1.3 1.7.1.6.2 1.3.4 1.7 0 .1.1.2.1.3V8.6c.2 0 .3.1.5.1h.8c.6-.1 1.3-.4 1.8-1 .5-.7.8-1.5.8-2.3zM37.4 9.6c-.1.1-.3.2-.5.1l-.1-.1-.3-.5c-.1-.2-.2-.3-.3-.5-.2-.3-.3-.7-.4-1-.1-.3-.2-.6-.3-1-.4.1-.8.1-1.2.3-.5.1-1.1.3-1.5.4h-.3l-.2.6c-.1.4-.2.7-.3 1.1-.1.4-.2.8-.3 1.1 0 .1-.2.2-.3.2-.1 0-.2-.2-.2-.3.1-.4.3-.7.4-1.1.2-.5.3-.9.4-1.2l.1-.4H32c-.2 0-.3-.1-.4-.3 0-.2.1-.3.3-.4H32.2l.3-1.2.6-2.2.3-1.1.2-.6.1-.3V1s.1-.1.1-.2c.1-.2.3-.2.5-.1.1 0 .1.1.2.2.1.7.2 1.4.4 2.1.2.7.3 1.4.5 2.1l.3.9h.6c.1 0 .1.1.1.1 0 .1-.1.1-.1.1h-.5l.3.9c.1.3.3.7.5 1 .1.2.2.3.3.5.1.1.2.3.3.4.2.3.3.5.2.6zm-2-3.4c-.1-.3-.2-.5-.3-.8-.3-1.1-.7-2.1-1-3.2v.1c-.1.3-.2.7-.4 1-.3.7-.5 1.5-.7 2.2l-.3 1c.4 0 .9-.1 1.5-.2.4 0 .8-.1 1.2-.1zM44 6.9l-.3.9c-.3.6-.8 1-1.3 1.2-.5.2-1.1.3-1.5.4h-1.3c-.4 0-.7 0-1-.1-.1 0-.3 0-.4-.1-.1 0-.1 0-.2-.1V9h.1c.1 0 .1 0 .2-.1h.1s-.1 0-.1.1h1.5s.8 0 1.3-.1.9-.2 1.4-.4c.5-.2.9-.6 1.1-1.1.1-.3.2-.5.2-.8v-.9c0-.3-.1-.6-.2-.8-.1-.2-.3-.4-.6-.5l-.9-.3c-.3-.1-.6-.2-.9-.2-.8.1-1.3.1-1.9.1h-.9c-.1 0-.1-.1-.2-.1-.1-.1-.2-.2-.2-.3 0-.1 0-.3.1-.3.1-.2.2-.3.3-.4.4-.4.8-.8 1.2-1 .4-.3.8-.5 1.1-.7.4-.2.7-.2 1-.2.3 0 .5.1.6.2.1 0 .1.1.1.1v.1l-.1-.1c-.1-.1-.3-.1-.6-.1s-.6.1-.9.3c-.3.2-.7.5-1 .7-.3.3-.7.6-1.1 1-.1.1-.2.2-.2.3H39.2c.6 0 1.3 0 1.9.1.3.1.6.2.9.2.4.2.7.3 1 .4.3.1.6.4.8.7.2.3.2.7.3 1-.1.3-.1.7-.1 1zM52.1 10.9c-1.4 1-3.4 1.3-4.9.4-1.6-.9-2.3-2.7-2.2-4.4.1-2.3 2.1-8.5 5.2-5.2.1.2-.1.5-.2.3-3-3.2-4.7 3.4-4.7 5.2 0 3.5 3.7 5.6 6.7 3.4.1-.1.3.2.1.3zM57.6 9.9c-2.3 2.5-5 0-5.8-2.6-.6-2 .2-6.7 3-6.7.3 0 .3.3.3.4 3.3 0 4.7 6.5 2.5 8.9zm0-1.1C58.9 6.5 57.2.2 54 2c-.2.1-.3 0-.4-.1-.5.6-.8 1.4-1 1.9-.4 1.3-.4 2.8.2 4.1.6 1.3 1.9 2.9 3.5 2.2.5-.2 1.1-.8 1.3-1.3zM67.9 1c-1.4.3-2.8.8-4.2 1.2 0 2.3-.1 4.7-.2 7 0 .2-.4.3-.4 0 .1-2.3.2-4.6.2-6.9-1.3.4-2.5.8-3.8 1-.2 0-.3-.3-.1-.4 1.3-.2 2.6-.6 3.9-1 0-.2.2-.2.3-.1C65 1.4 66.4.9 67.8.6c.2 0 .3.3.1.4z"/><path d="M74.9 1c-1.4.3-2.8.8-4.2 1.2 0 2.3-.1 4.7-.2 7 0 .2-.4.3-.4 0 .1-2.3.2-4.6.2-6.9-1.3.4-2.5.8-3.8 1-.2 0-.3-.3-.1-.4 1.3-.2 2.6-.6 3.9-1 0-.2.2-.2.3-.1C72 1.4 73.4.9 74.8.6c.3 0 .3.3.1.4zM73.4 7.8c.4 0 .6.2.6.6 0 .4-.2.6-.6.6-.4 0-.6-.2-.6-.6 0-.3.3-.6.6-.6zM78.6 7.3s0 .1-.1.3c-.1.2-.3.5-.7.7-.2.1-.4.2-.7.2-.3 0-.5-.1-.7-.3-.4-.3-.6-.9-.7-1.4-.1-.5-.1-1 0-1.5s.2-.9.3-1.3v-.3c0-.1.1-.2.1-.3 0-.1.1-.1.2-.2s.1-.1.3-.2h.2c.1 0 .1.1.1.1 0 .1.1.1.1.2v.1c0 .1 0 .2-.2.3-.1 0-.2 0-.3-.2 0 0 0 .1-.1.1-.1.1-.1.2-.2.4-.1.3-.2.8-.3 1.2-.1.4-.1.9 0 1.4.1.5.2.9.5 1.2.4.2.6.3.8.3.2 0 .3 0 .5-.1.3-.1.5-.3.6-.5.1-.2.2-.3.2-.3l.1.1c0-.1 0 0 0 0zm-2-3.7zM82.9 8.3c-.5.5-1 .9-1.8.9-.4 0-.8-.1-1.2-.3-.9-.5-1.2-1.4-.9-2.6 0-.1.5-1.2 1.3-1.3.2 0 .5-.1.7-.1.6 0 1 .2 1.3.7 1 1.1 1.2 2.1.6 2.7zM82 5.7c-.2-.3-.5-.5-.9-.5-.2 0-.4 0-.6.1-.5.1-.9.8-.9.9v.1c-.4.7-.4 1.7.5 2.1.4.2.7.3 1 .3.6 0 1-.3 1.5-.8s-.1-1.6-.6-2.2zM89.5 8.9c0 .2-.1.3-.3.3-.2 0-.3-.1-.3-.3V6.4v-.5c0-.3-.1-.6-.3-.8-.1-.1-.2-.1-.3-.2-.1 0-.3 0-.4-.1h-.4c-.1 0-.2.1-.3.2-.2.2-.3.4-.5.7-.1.1-.1.3-.2.4 0 .1-.1.1-.1.2v.1c0 .2.1.3.1.5V8.2H86.2l-.1-.1V8v-.2-.4-.8-.3c-.1-.2-.2-.4-.4-.5h-.1-.1c-.1 0-.2.1-.2.1-.2.2-.3.4-.4.6-.1.1-.1.2-.2.3v.1c0 .4 0 .8.1 1.1v.6c0 .2-.2.4-.4.4s-.4-.2-.4-.4v-.2V8 6.9 5.3c-.3-.1-.2-.3 0-.3s.3.1.3.3v.6l.3-.3c.1-.1.3-.2.5-.3h.5c.1 0 0 0 .1.1l.3.3v-.1c.2-.3.4-.6.7-.9l.6-.3h.6s.4 0 .6.1c.2.1.4.2.5.4.1.2.2.4.3.5 0 .2.1.4.1.5v1c.1.7.1 1.4.1 2z"/></g></svg>